<svg id="Layer_1" data-name="Layer 1" xmlns="http://www.w3.org/2000/svg" viewBox="0 0 195.17 100"><defs><style>.cls-1{fill:#06b0cc;}.cls-1,.cls-2{fill-rule:evenodd;}.cls-2{fill:#f26441;}</style></defs><title>Spark_Color</title><g id="SPRK"><path class="cls-1" d="M171.66,25.88V3.74c0-1.22.44-1.66,1.68-1.66,5.15,0,10.3,0,15.45,0a13.37,13.37,0,0,1,8.91,3.29,17.26,17.26,0,0,1,4.45,6.37,39.49,39.49,0,0,1,2.68,11,87,87,0,0,1,.5,10.73c0,3.83,0,7.65-.05,11.48,0,1.13-.13,2.26-.18,3.39,0,.3-.15.41-.45.41h-9.95c-.29,0-.39-.11-.38-.39.06-2.61.13-5.23.15-7.84s0-5.39,0-8.08c0-1.61,0-3.22-.05-4.83a47.1,47.1,0,0,0-.75-7.7,13,13,0,0,0-2-5.09,6.19,6.19,0,0,0-4.84-2.7c-1.08-.08-2.17,0-3.25,0a1.23,1.23,0,0,0-1.29,1.3c0,.21,0,.41,0,.62V48c0,.72,0,.72-.73.72-3.11,0-6.22,0-9.33,0-.5,0-.61-.15-.6-.62Q171.67,37,171.66,25.88Z" transform="translate(-52.42)"/><path class="cls-1" d="M100.65,48.48H90.15V3.35a1.3,1.3,0,0,1,1.46-1.49c4.45,0,8.9-.08,13.34,0a17.34,17.34,0,0,1,10.8,3.69,16.81,16.81,0,0,1,4.72,6.4,36.71,36.71,0,0,1,2.66,10.87,108.7,108.7,0,0,1,.52,15.42c-.1,3.25-.41,6.48-.62,9.72,0,.35-.13.5-.51.5q-4.83,0-9.66,0c-.34,0-.42-.12-.41-.46.1-2.2.22-4.39.24-6.59q.06-6.38,0-12.77a39.54,39.54,0,0,0-1.21-10.46,11.61,11.61,0,0,0-2.09-4.32A5.54,5.54,0,0,0,105,11.82c-.94,0-1.88,0-2.82,0a1.39,1.39,0,0,0-1.56,1.57q0,17,0,34Z" transform="translate(-52.42)"/><path class="cls-1" d="M182.32,70.34V93.4c0,1.36-.45,1.82-1.8,1.82h-7.17c-1.2,0-1.68-.49-1.68-1.68q0-18.41,0-36.82c0-.7,0-.7.71-.7h9.28c.67,0,.67,0,.67.69q0,1.75,0,3.49c0,.22,0,.42.31.42a27.2,27.2,0,0,0,5.24-.26,6.46,6.46,0,0,0,4.9-3.79.83.83,0,0,1,.91-.55c3.19,0,6.38,0,9.56,0l.57,0a1.64,1.64,0,0,1,0,.37,24.22,24.22,0,0,1-3.41,8.1,10.57,10.57,0,0,1-2.73,2.78.47.47,0,0,0-.19.67q2,5.16,4,10.33l5.94,15.18.1.27c.38,1,.09,1.48-1,1.48h-7.17a2.17,2.17,0,0,1-2.21-1.5l-5.86-14.29c-1.18-2.87-2.34-5.75-3.53-8.62-.08-.19-.3-.44-.46-.44C185.69,70.33,184,70.34,182.32,70.34Z" transform="translate(-52.42)"/><path class="cls-1" d="M73.48,48.49l-.57,0c-4.16,0-8.32,0-12.48,0-.49,0-.66-.26-.87-.59a44.59,44.59,0,0,1-6.18-15.29,51.63,51.63,0,0,1-.9-12.37,27.91,27.91,0,0,1,2.13-10.14A14.47,14.47,0,0,1,66.69,1a19,19,0,0,1,9.77,1.12,12.7,12.7,0,0,1,6.7,6.45,22.46,22.46,0,0,1,2.25,9.27c.16,5.22.14,10.45.19,15.68,0,.41,0,.83,0,1.24a1.28,1.28,0,0,1-1.37,1.34h-7a1.27,1.27,0,0,1-1.36-1.43c0-3.6,0-7.21,0-10.81A33.22,33.22,0,0,0,75,15.73a11.72,11.72,0,0,0-1.07-2.65,4.58,4.58,0,0,0-3.87-2.35,7.08,7.08,0,0,0-3.56.5,5.64,5.64,0,0,0-3,3.73,18.12,18.12,0,0,0-.75,5.33,48.48,48.48,0,0,0,.76,10.28A31.07,31.07,0,0,0,67.65,41a45.83,45.83,0,0,0,5.57,7.16C73.29,48.25,73.36,48.34,73.48,48.49Z" transform="translate(-52.42)"/><path class="cls-1" d="M223.06,64.23l-.91,2.9c-.37,1.2-.77,2.4-1.1,3.61a6.88,6.88,0,0,0-.26,1.78q0,10.45,0,20.9c0,1.33-.45,1.78-1.77,1.78h-7.22c-1.17,0-1.65-.5-1.65-1.67q0-18.44,0-36.88c0-.66,0-.66.65-.66q9.4,0,18.8,0a.83.83,0,0,1,.88.59q3.26,7.23,6.55,14.46l8.16,18,2.22,4.87c.42.91.16,1.31-.86,1.31h-8.71a2.42,2.42,0,0,1-2.52-1.72q-2.59-6.3-5.2-12.59l-6.2-15c-.23-.55-.47-1.11-.7-1.66Z" transform="translate(-52.42)"/><path class="cls-1" d="M65.51,55.79l.5,0c4.53,0,9.06,0,13.58,0a1.06,1.06,0,0,1,.93.45A33.14,33.14,0,0,1,86.08,66a27.12,27.12,0,0,1,1.35,7.12,34.52,34.52,0,0,1-.77,10,17.66,17.66,0,0,1-3.95,8,13.57,13.57,0,0,1-7.29,4.22,22.51,22.51,0,0,1-11.81-.4,13.22,13.22,0,0,1-7.9-6.67A26.12,26.12,0,0,1,53.13,80a74.62,74.62,0,0,1-.7-12.92c0-.88.52-1.36,1.49-1.36h7a1.3,1.3,0,0,1,1.43,1.47c.06,2.69.06,5.39.2,8.07a18.43,18.43,0,0,0,1.55,7A6.64,6.64,0,0,0,72.8,85.7a6.32,6.32,0,0,0,3.58-4.18,17.6,17.6,0,0,0,.7-7,30.65,30.65,0,0,0-.71-4.71,14.61,14.61,0,0,0-3.85-6.51c-2.14-2.29-4.33-4.55-6.49-6.82C65.86,56.25,65.72,56.06,65.51,55.79Z" transform="translate(-52.42)"/><path class="cls-1" d="M121.54,55.77a26.93,26.93,0,0,1-3.36,7.75,13.16,13.16,0,0,1-10.29,6.31c-1.74.14-3.51,0-5.26.07a5.61,5.61,0,0,0-.81,0,1.29,1.29,0,0,0-1.17,1.35c0,1,0,1.95,0,2.92q0,9.59,0,19.18c0,1.16-.43,1.58-1.59,1.58H91.69c-1.08,0-1.54-.46-1.54-1.54q0-18.3,0-36.59c0-1.05,0-1.05,1.07-1.05,2.95,0,5.9,0,8.85,0,.47,0,.6.14.59.6,0,1.12,0,2.23,0,3.35,0,.23,0,.46.33.46,1.55,0,3.1.08,4.63-.08a6.11,6.11,0,0,0,5-3.74.89.89,0,0,1,.94-.59c3.09,0,6.19,0,9.28,0Z" transform="translate(-52.42)"/><path class="cls-1" d="M221.88,48.73l.63-2.73,5-21.52L232,4.69c.1-.42.18-.84.29-1.26A1.68,1.68,0,0,1,234,2.08h9.52a.93.93,0,0,1,1,1.32q-2,7.14-4,14.27l-3.36,12-5,18c-.29,1-.29,1-1.37,1h-8.89Z" transform="translate(-52.42)"/><path class="cls-1" d="M220.78,25.83q0,11.1,0,22.19c0,.7,0,.7-.71.7-3.11,0-6.22,0-9.33,0-.49,0-.62-.15-.62-.62q0-22.19,0-44.39c0-1.2.46-1.65,1.64-1.65h7.41c1.12,0,1.59.47,1.59,1.61Q220.78,14.76,220.78,25.83Z" transform="translate(-52.42)"/></g><g id="A"><path class="cls-2" d="M121.65,55.68c.23-1,.48-2,.67-3,.23-1.2.43-2.42.61-3.63.05-.36.17-.5.54-.49.64,0,1.28,0,1.91,0a1.87,1.87,0,0,0,2-1.56l2.45-8.2,7.7-25.69c1.2-4,2.38-8,3.58-12A10.74,10.74,0,0,1,141.62,0l.21,0a4.11,4.11,0,0,1,.32.76q.56,2.69,1.08,5.39,1.7,8.73,3.39,17.46,1.87,9.62,3.73,19.24l3.94,20.23c.3,1.55.59,3.1.89,4.65.06.28.16.55.24.83h.19a6.72,6.72,0,0,0,.26-.66q1.12-4.06,2.22-8.12c.57-2.09,1.11-4.19,1.73-6.27a10.43,10.43,0,0,1,1-2.4,4.59,4.59,0,0,1,3.82-2.24c2.21-.13,4.43-.09,6.64-.1.11,0,.31.22.31.35,0,2.14,0,4.27,0,6.41,0,.34-.17.39-.45.39h-3.11a1.85,1.85,0,0,0-1.93,1.51q-2.66,9.81-5.32,19.61t-5.28,19.43c-.26,1-.61,1.91-.94,2.86a1.91,1.91,0,0,1-.28.5c-.16.22-.36.22-.49,0a3.85,3.85,0,0,1-.36-.93q-.84-4.12-1.64-8.25-1.75-9.08-3.49-18.17-2-10.16-3.9-20.33-1.35-7-2.71-14c-.42-2.16-.82-4.32-1.24-6.48-.05-.28-.16-.55-.24-.83h-.16a3.39,3.39,0,0,0-.23.48c-1.95,6.4-3.87,12.81-5.86,19.21a13,13,0,0,1-1.32,2.8,4.87,4.87,0,0,1-4.25,2.43c-2.18.06-4.37,0-6.55,0A1.9,1.9,0,0,1,121.65,55.68Z" transform="translate(-52.42)"/></g></svg>